<?xml version="1.0" encoding="UTF-8" standalone="no"?>
<svg
   viewBox="0 0 24 24"
   version="1.1"
   id="svg1"
   sodipodi:docname="github.svg"
   inkscape:version="1.4 (86a8ad7, 2024-10-11)"
   xmlns:inkscape="http://www.inkscape.org/namespaces/inkscape"
   xmlns:sodipodi="http://sodipodi.sourceforge.net/DTD/sodipodi-0.dtd"
   xmlns="http://www.w3.org/2000/svg"
   xmlns:svg="http://www.w3.org/2000/svg">
  <defs
     id="defs1" />
  <sodipodi:namedview
     id="namedview1"
     pagecolor="#000000"
     bordercolor="#000000"
     borderopacity="0.25"
     inkscape:showpageshadow="2"
     inkscape:pageopacity="0.0"
     inkscape:pagecheckerboard="0"
     inkscape:deskcolor="#d1d1d1"
     inkscape:zoom="24.479167"
     inkscape:cx="15.95234"
     inkscape:cy="5.2902128"
     inkscape:window-width="3440"
     inkscape:window-height="1377"
     inkscape:window-x="-8"
     inkscape:window-y="-8"
     inkscape:window-maximized="1"
     inkscape:current-layer="svg1" />
  <path
     d="m 12.000006,5.8631524 c -3.4766951,0 -6.2926607,2.8175388 -6.2926607,6.2926606 0,2.780833 1.8028472,5.139006 4.3026067,5.970162 0.314633,0.05926 0.429999,-0.135292 0.429999,-0.302573 0,-0.14945 -0.0052,-0.545363 -0.0079,-1.069752 C 8.6816762,17.133307 8.3125068,15.909385 8.3125068,15.909385 8.0261907,15.183107 7.6124483,14.989084 7.6124483,14.989084 7.0424382,14.598938 7.656497,14.606805 7.656497,14.606805 c 0.6318881,0.04404 0.9638258,0.648143 0.9638258,0.648143 0.5610957,0.962253 1.4730072,0.684328 1.8327372,0.523341 0.05664,-0.406926 0.218671,-0.684328 0.398535,-0.841643 -1.3974946,-0.157318 -2.8663065,-0.698487 -2.8663065,-3.109624 0,-0.68695 0.2438406,-1.248044 0.6476198,-1.688531 -0.070792,-0.1588897 -0.28317,-0.7986436 0.055061,-1.6654576 0,0 0.5270104,-0.168853 1.7304817,0.6449977 0.503413,-0.1400118 1.038288,-0.209231 1.573165,-0.2123773 0.534875,0.00315 1.069752,0.072366 1.573165,0.2123773 1.195605,-0.8138507 1.722615,-0.6449977 1.722615,-0.6449977 0.338232,0.866814 0.125853,1.5065679 0.06293,1.6654576 0.401156,0.440487 0.644997,1.001581 0.644997,1.688531 0,2.41743 -1.470908,2.949684 -2.871026,3.104379 0.220243,0.188779 0.424754,0.57473 0.424754,1.164143 0,0.842167 -0.0079,1.518628 -0.0079,1.723139 0,0.165183 0.110122,0.361828 0.432621,0.298901 2.517587,-0.825387 4.318862,-3.185134 4.318862,-5.961771 -3e-5,-3.4751218 -2.817569,-6.2926606 -6.292691,-6.2926606"
     id="path1"
     style="fill:#ffffff;stroke-width:0.524389" />
</svg>
