<?xml version="1.0" encoding="UTF-8" standalone="no"?>
<svg
   viewBox="409.289 277.787 92.706505 92.706503"
   width="92.706505"
   height="92.706505"
   version="1.1"
   id="svg10"
   sodipodi:docname="makertube.svg"
   inkscape:version="1.4 (86a8ad7, 2024-10-11)"
   xml:space="preserve"
   xmlns:inkscape="http://www.inkscape.org/namespaces/inkscape"
   xmlns:sodipodi="http://sodipodi.sourceforge.net/DTD/sodipodi-0.dtd"
   xmlns="http://www.w3.org/2000/svg"
   xmlns:svg="http://www.w3.org/2000/svg"><defs
     id="defs10" /><sodipodi:namedview
     id="namedview10"
     pagecolor="#000000"
     bordercolor="#000000"
     borderopacity="0.25"
     inkscape:showpageshadow="2"
     inkscape:pageopacity="0.0"
     inkscape:pagecheckerboard="0"
     inkscape:deskcolor="#d1d1d1"
     inkscape:zoom="4.5519999"
     inkscape:cx="53.932339"
     inkscape:cy="43.607207"
     inkscape:window-width="3440"
     inkscape:window-height="1377"
     inkscape:window-x="-8"
     inkscape:window-y="-8"
     inkscape:window-maximized="1"
     inkscape:current-layer="svg10" /><path
     style="fill:#ffffff;stroke-width:0.703953"
     d="m 443.48929,336.78095 c -0.0322,-0.0322 -0.0584,-2.56388 -0.0584,-5.62606 v -5.5676 h 1.04588 1.04588 l 0.0226,4.5573 0.0226,4.55728 h 10.07402 10.07401 l 0.0223,-6.60697 0.0224,-6.60699 h -11.16487 -11.16483 v -2.79381 c 0,-2.15611 0.0249,-2.8027 0.10903,-2.83277 0.20238,-0.0724 7.10167,-1.3511 7.28962,-1.3511 0.1219,0 0.20151,0.0678 0.23044,0.19625 0.12499,0.55514 0.6569,3.50564 0.6569,3.64386 0,0.19986 0.0772,0.17871 -2.22226,0.60906 -1.05434,0.19733 -1.93418,0.37597 -1.9552,0.39699 -0.0211,0.0211 4.54106,0.0382 10.13798,0.0382 h 10.17619 l -0.0222,8.70029 -0.0222,8.70029 -12.13068,0.0221 c -6.67187,0.0122 -12.15698,-0.004 -12.18912,-0.0364 z m 10.23361,-8.66302 c 0,-1.39185 0.0177,-2.53064 0.0394,-2.53064 0.0216,0 0.8906,0.56567 1.931,1.25704 l 1.89166,1.25704 -1.56033,1.03264 c -0.85818,0.56798 -1.72713,1.1411 -1.93102,1.27362 l -0.37068,0.24095 z m -0.38825,-10.05344 c -0.0563,-0.18106 -0.64869,-3.40419 -0.67631,-3.67977 l -0.0256,-0.25634 1.68722,-0.31813 c 1.12855,-0.21279 1.69774,-0.28675 1.71901,-0.22337 0.0896,0.26718 0.7381,3.91661 0.70231,3.9524 -0.045,0.045 -3.07401,0.63424 -3.26042,0.63424 -0.0617,0 -0.12746,-0.0491 -0.14611,-0.10903 z m 4.97838,-0.99573 c -0.32186,-1.60204 -0.67064,-3.80702 -0.61051,-3.85957 0.0419,-0.0366 0.79488,-0.19882 1.67331,-0.36045 1.13402,-0.20867 1.61457,-0.2657 1.6572,-0.19666 0.12329,0.19966 0.74076,3.87242 0.66278,3.94231 -0.0437,0.0392 -0.72703,0.19745 -1.51855,0.35178 -0.79153,0.15434 -1.52362,0.30067 -1.62686,0.32519 -0.15149,0.0359 -0.19729,-0.003 -0.23737,-0.2026 z m 5.06511,-0.7923 c -0.0201,-0.0359 -0.10458,-0.43829 -0.18767,-0.89402 -0.0831,-0.45572 -0.2466,-1.33453 -0.36333,-1.95292 -0.11674,-0.61838 -0.19446,-1.14212 -0.1727,-1.16388 0.0525,-0.0525 4.05527,-0.80427 4.29397,-0.80644 0.17142,-0.002 0.20687,0.10916 0.45316,1.41564 0.41188,2.18479 0.46592,2.52189 0.41274,2.57506 -0.0399,0.0398 -4.12594,0.87654 -4.33932,0.88858 -0.0331,0.003 -0.0768,-0.0261 -0.0969,-0.062 z"
     id="path1" /></svg>
