<?xml version="1.0" encoding="UTF-8" standalone="no"?>
<svg
   viewBox="0 0 24 24"
   version="1.1"
   id="svg1"
   sodipodi:docname="mastodon.svg"
   inkscape:version="1.4 (86a8ad7, 2024-10-11)"
   xmlns:inkscape="http://www.inkscape.org/namespaces/inkscape"
   xmlns:sodipodi="http://sodipodi.sourceforge.net/DTD/sodipodi-0.dtd"
   xmlns="http://www.w3.org/2000/svg"
   xmlns:svg="http://www.w3.org/2000/svg">
  <defs
     id="defs1" />
  <sodipodi:namedview
     id="namedview1"
     pagecolor="#000000"
     bordercolor="#000000"
     borderopacity="0.25"
     inkscape:showpageshadow="2"
     inkscape:pageopacity="0.0"
     inkscape:pagecheckerboard="false"
     inkscape:deskcolor="#d1d1d1"
     inkscape:zoom="24.479167"
     inkscape:cx="12.010213"
     inkscape:cy="11.989787"
     inkscape:window-width="3440"
     inkscape:window-height="1377"
     inkscape:window-x="-8"
     inkscape:window-y="-8"
     inkscape:window-maximized="1"
     inkscape:current-layer="svg1" />
  <path
     d="M 17.604397,8.6739831 C 17.430312,7.3917185 16.302734,6.3810274 14.966255,6.1850568 14.74044,6.1517318 13.885929,6.0313641 11.906825,6.0313641 h -0.01492 c -1.9796016,0 -2.4048676,0.1203677 -2.6301843,0.1536927 C 7.9620464,6.3755561 6.7752802,7.2837854 6.4872926,8.581469 6.3495163,9.2206117 6.3345947,9.9293888 6.3599615,10.578977 c 0.036807,0.932104 0.04377,1.862715 0.1293206,2.79084 0.058692,0.616761 0.1616509,1.228547 0.30838,1.830386 0.2735629,1.112655 1.3812452,2.038293 2.4670411,2.41581 1.1618968,0.393931 2.4118308,0.459089 3.6090428,0.189007 0.131807,-0.03034 0.262123,-0.06565 0.390947,-0.105943 0.290971,-0.09152 0.631682,-0.193981 0.882364,-0.374533 a 0.02835108,0.02835108 0 0 0 0.01144,-0.02139 V 16.40338 a 0.02586414,0.02586414 0 0 0 -0.0099,-0.02039 0.02636153,0.02636153 0 0 0 -0.02288,-0.005 10.08801,10.08801 0 0 1 -2.342197,0.271076 c -1.357868,0 -1.722453,-0.638646 -1.8274017,-0.904251 A 2.7818874,2.7818874 0 0 1 9.7974522,15.03206 0.02636153,0.02636153 0 0 1 9.8302832,15.0052 c 0.7545368,0.180551 1.5279738,0.271574 2.3038988,0.271574 0.187017,0 0.37304,0 0.559561,-0.005 0.780898,-0.02188 1.603576,-0.06167 2.371542,-0.209898 0.0189,-0.004 0.0383,-0.0075 0.05472,-0.01194 1.211138,-0.230788 2.364083,-0.954984 2.481466,-2.787359 0.004,-0.07212 0.01492,-0.756029 0.01492,-0.830637 0.001,-0.254662 0.08306,-1.805516 -0.01194,-2.7580128 z M 15.74019,13.24746 h -1.27381 v -3.092755 c 0,-0.6510798 -0.273563,-0.9828372 -0.830637,-0.9828372 -0.611786,0 -0.918177,0.392936 -0.918177,1.1688602 v 1.692609 h -1.266348 v -1.693106 c 0,-0.7759245 -0.306888,-1.1688605 -0.919171,-1.1688605 -0.5530953,0 -0.8296425,0.3322547 -0.830637,0.9833345 V 13.24746 H 8.4295901 v -3.186264 c 0,-0.651577 0.1676195,-1.1688599 0.5028584,-1.5518481 C 9.2786306,8.1263596 9.7322476,7.930389 10.29529,7.930389 c 0.652075,0 1.144986,0.2486937 1.473261,0.7450862 l 0.317334,0.5272307 0.317332,-0.5272307 c 0.328276,-0.4968899 0.82069,-0.7450862 1.472267,-0.7450862 0.562048,0 1.016163,0.196468 1.362842,0.5789589 0.335736,0.3829882 0.503356,0.9002711 0.503356,1.5518481 z"
     id="path1"
     style="fill:#ffffff;stroke-width:0.497388" />
</svg>
