<?xml version="1.0" encoding="UTF-8" standalone="no"?>
<svg
   viewBox="409.289 277.787 92.706505 92.706503"
   width="92.706505"
   height="92.706505"
   version="1.1"
   id="svg10"
   sodipodi:docname="youtube.svg"
   inkscape:version="1.4 (86a8ad7, 2024-10-11)"
   xmlns:inkscape="http://www.inkscape.org/namespaces/inkscape"
   xmlns:sodipodi="http://sodipodi.sourceforge.net/DTD/sodipodi-0.dtd"
   xmlns="http://www.w3.org/2000/svg"
   xmlns:svg="http://www.w3.org/2000/svg">
  <defs
     id="defs10" />
  <sodipodi:namedview
     id="namedview10"
     pagecolor="#000000"
     bordercolor="#000000"
     borderopacity="0.25"
     inkscape:showpageshadow="2"
     inkscape:pageopacity="0.0"
     inkscape:pagecheckerboard="0"
     inkscape:deskcolor="#d1d1d1"
     inkscape:zoom="9.1039998"
     inkscape:cx="75.351495"
     inkscape:cy="45.090071"
     inkscape:window-width="3440"
     inkscape:window-height="1377"
     inkscape:window-x="-8"
     inkscape:window-y="-8"
     inkscape:window-maximized="1"
     inkscape:current-layer="g2" />
  <g
     viewBox="0 0 90 20"
     preserveAspectRatio="xMidYMid meet"
     class="style-scope yt-icon"
     transform="matrix(5.715038,0,0,5.715038,403.36831,248.14555)"
     id="g10">
    <g
       class="style-scope yt-icon"
       id="g2"
       transform="matrix(0.49659439,0,0,0.49659439,2.0965878,8.4916207)">
      <path
         id="path1"
         style="fill:#ffffff;stroke-width:0.341664"
         class="style-scope yt-icon"
         d="m 14.197112,6.2606436 c 0,0 -3.052623,-5.6e-6 -3.813573,0.2040927 C 9.9632921,6.5772315 9.6328715,6.9074136 9.5203763,7.3276636 9.316278,8.0886103 9.3162834,9.6773177 9.3162834,9.6773177 c 0,0 -5.4e-6,1.5884663 0.2040929,2.3494193 0.1124952,0.420246 0.4429158,0.750686 0.8631627,0.863162 0.76095,0.20411 3.813573,0.204093 3.813573,0.204093 0,0 3.052655,1.7e-5 3.813574,-0.204093 0.420247,-0.112476 0.750452,-0.442916 0.862927,-0.863162 0.204111,-0.760953 0.204092,-2.3494193 0.204092,-2.3494193 0,0 -7.86e-4,-1.5887074 -0.204092,-2.3496541 C 18.761138,6.9074136 18.430933,6.5772315 18.010686,6.4647363 17.249767,6.260638 14.197112,6.2606436 14.197112,6.2606436 Z m -0.9772,1.9527547 2.536112,1.4639194 -2.536112,1.4641553 z" />
    </g>
  </g>
</svg>
